<?xml version="1.0" encoding="utf-8"?><svg xml:space="preserve" viewBox="0 0 128 128" y="0px" x="0px" xmlns:xlink="http://www.w3.org/1999/xlink" xmlns="http://www.w3.org/2000/svg" id="圖層_1" version="1.1" data-darkreader-inline-bgimage="" data-darkreader-inline-bgcolor="" width="128px" height="128px" style="width:100%;height:100%;background-size:initial;background-repeat-y:initial;background-repeat-x:initial;background-position-y:initial;background-position-x:initial;background-origin:initial;background-color:initial;background-clip:initial;background-attachment:initial;animation-play-state:paused" ><g class="ldl-scale" style="transform-origin:50% 50%;transform:scale(0.8);animation-play-state:paused" ><style type="text/css" style="animation-play-state:paused" >.st0{fill:none}.st1,.st2{stroke-width:3}.st1{stroke:#000;stroke-linecap:round;stroke-linejoin:round;stroke-miterlimit:10;fill:#fce9f2}.st2{fill:#fff}.st2,.st3,.st4,.st5{stroke:#000;stroke-linecap:round;stroke-linejoin:round;stroke-miterlimit:10}.st3{fill:#ef66b2;stroke-width:3}.st4,.st5{stroke-width:.25}.st5{fill:none;stroke-width:3}</style>
<path d="z" class="st0" style="animation-play-state:paused" ></path>
<g style="animation-play-state:paused" ><path d="M110.5,64.7c0-21.2-20.6-38.4-46-38.4c-19.2,0-35.6,9.8-42.5,23.7h-4.8c-3.5,0-6.3,2.8-6.3,6.2v15.5 c0,3.4,2.8,6.2,6.3,6.2h4C24,84.3,28.9,90,35.3,94.4l-3.1,11.1l21,5.5l2.8-10.4c2.6,1.2,5.5,2.1,8.4,2.4c6.7,0.9,12-0.9,14.6-2 l2.7,9.9l21-5.5l-4.2-15.1C106,83.5,110.5,74.5,110.5,64.7z" class="st1" data-darkreader-inline-fill="" data-darkreader-inline-stroke="" style="stroke:rgb(0, 0, 0);fill:rgb(252, 233, 242);animation-play-state:paused" ></path>
<path d="M78.1,38.4c-5.5-2-11.4-2.7-17.3-2.2c-1.2,0.1-2.4,0.3-3.5,0.5" class="st2" data-darkreader-inline-fill="" data-darkreader-inline-stroke="" style="stroke:rgb(0, 0, 0);fill:rgb(255, 255, 255);animation-play-state:paused" ></path>
<path d="M45.3,22.6c-5.5-4.5-13.6-3.7-18.1,1.9l20,16.3C51.6,35.1,50.8,27,45.3,22.6z" class="st3" data-darkreader-inline-fill="" data-darkreader-inline-stroke="" style="stroke:rgb(0, 0, 0);fill:rgb(239, 102, 178);animation-play-state:paused" ></path>
<circle r="4.6" cy="53" cx="39.1" class="st4" data-darkreader-inline-fill="" data-darkreader-inline-stroke="" style="stroke:rgb(0, 0, 0);animation-play-state:paused" ></circle>
<path d="M99.3,39.7c0.4-4.9,3.4-9.3,7-12.7c2-1.8,4.6-3.5,7.2-2.7c2.1,0.7,3.4,2.9,3.7,5.2c0.2,2.2-0.6,4.7-2.5,5.9 c-1.7,1.1-4.1,0.8-5.7-0.3c-1.7-1.1-2.8-3-3.3-5c-1.1-4.1,0.4-8.8,3.7-11.6c1-0.9,2.5-1.6,3.8-1.5" class="st5" data-darkreader-inline-stroke="" style="stroke:rgb(0, 0, 0);animation-play-state:paused" ></path></g>
<path d="z" class="st0" style="animation-play-state:paused" ></path>
<metadata xmlns:d="https://loading.io/stock/" style="animation-play-state:paused" ><d:name style="animation-play-state:paused" >moneybox</d:name>


<d:tags style="animation-play-state:paused" >moneybox,porcelain,cute,piggy bank,coin bank,deposit box</d:tags>


<d:license style="animation-play-state:paused" >by</d:license>


<d:slug style="animation-play-state:paused" >adtc6u</d:slug></metadata></g><!-- generated by https://loading.io/ --></svg>